<svg width="281" height="274" viewBox="0 0 281 274" fill="none" xmlns="http://www.w3.org/2000/svg">
<path d="M280.438 39.5941V235.264C280.438 256.544 263.036 273.956 241.767 273.956H111.563L155.678 229.616C161.561 223.707 169.547 220.382 177.884 220.382H206.441C217.693 220.382 226.893 211.178 226.893 199.92V74.938C226.893 63.6874 217.693 54.476 206.441 54.476H74.0662C62.8216 54.476 53.615 63.6874 53.615 74.938V190.024L118.24 125.073L111.473 118.332C107.955 114.819 109.546 108.815 114.344 107.521L183.744 88.7402C188.541 87.4452 192.943 91.8281 191.664 96.6343L173.221 166.161C171.942 170.96 165.947 172.582 162.431 169.078L155.663 162.344C136.03 182.077 116.189 201.586 96.6891 221.46C82.4697 235.947 68.1092 250.286 53.7561 264.639C34.5102 283.985 0.999021 271.306 0.0919771 244.021C-0.101064 238.209 0.0697041 232.362 0.0697041 226.55V39.5941C0.0697041 18.3137 17.4718 0.902344 38.741 0.902344H241.765C263.036 0.902344 280.438 18.3137 280.438 39.5941Z" fill="url(#paint0_linear_11_14)"/>
<defs>
<linearGradient id="paint0_linear_11_14" x1="9.15551" y1="264.895" x2="269.168" y2="12.3545" gradientUnits="userSpaceOnUse">
<stop stop-color="#4DB2CE"/>
<stop offset="0.0945" stop-color="#4FB2C9"/>
<stop offset="0.2412" stop-color="#53B3BC"/>
<stop offset="0.4217" stop-color="#59B3A6"/>
<stop offset="0.6289" stop-color="#60B389"/>
<stop offset="0.8558" stop-color="#68B35E"/>
<stop offset="0.9913" stop-color="#6BB445"/>
</linearGradient>
</defs>
</svg>
